<mxfile host="app.diagrams.net" agent="Mozilla/5.0 (Windows NT 10.0; Win64; x64) AppleWebKit/537.36 (KHTML, like Gecko) Chrome/128.0.0.0 Safari/537.36 OPR/114.0.0.0" version="24.8.3">
  <diagram name="Sida-1" id="3GQGVHy-1wQHirCoyvnR">
    <mxGraphModel dx="1713" dy="559" grid="1" gridSize="10" guides="1" tooltips="1" connect="1" arrows="1" fold="1" page="1" pageScale="1" pageWidth="827" pageHeight="1169" math="0" shadow="0">
      <root>
        <mxCell id="0" />
        <mxCell id="1" parent="0" />
        <mxCell id="RJBFYBSUg46-iDFTEeFW-1" value="Post" style="whiteSpace=wrap;html=1;align=center;" parent="1" vertex="1">
          <mxGeometry x="-40" y="180" width="100" height="40" as="geometry" />
        </mxCell>
        <mxCell id="RJBFYBSUg46-iDFTEeFW-11" value="" style="edgeStyle=orthogonalEdgeStyle;rounded=0;orthogonalLoop=1;jettySize=auto;html=1;" parent="1" source="RJBFYBSUg46-iDFTEeFW-3" target="RJBFYBSUg46-iDFTEeFW-10" edge="1">
          <mxGeometry relative="1" as="geometry" />
        </mxCell>
        <mxCell id="RJBFYBSUg46-iDFTEeFW-3" value="User" style="whiteSpace=wrap;html=1;align=center;" parent="1" vertex="1">
          <mxGeometry x="650" y="440" width="100" height="40" as="geometry" />
        </mxCell>
        <mxCell id="RJBFYBSUg46-iDFTEeFW-4" value="Event" style="whiteSpace=wrap;html=1;align=center;" parent="1" vertex="1">
          <mxGeometry x="650" y="220" width="100" height="40" as="geometry" />
        </mxCell>
        <mxCell id="RJBFYBSUg46-iDFTEeFW-5" value="&lt;span id=&quot;docs-internal-guid-3fd6cfa4-7fff-0450-d13b-978bd1708c18&quot;&gt;&lt;span style=&quot;font-size: 11pt; font-family: Arial, sans-serif; background-color: transparent; font-variant-numeric: normal; font-variant-east-asian: normal; font-variant-alternates: normal; font-variant-position: normal; vertical-align: baseline; white-space-collapse: preserve;&quot;&gt;Subscription&lt;/span&gt;&lt;/span&gt;" style="whiteSpace=wrap;html=1;align=center;" parent="1" vertex="1">
          <mxGeometry x="660" y="320" width="100" height="40" as="geometry" />
        </mxCell>
        <mxCell id="RJBFYBSUg46-iDFTEeFW-8" style="rounded=0;orthogonalLoop=1;jettySize=auto;html=1;entryX=0.5;entryY=0;entryDx=0;entryDy=0;endArrow=none;endFill=0;" parent="1" source="RJBFYBSUg46-iDFTEeFW-6" target="RJBFYBSUg46-iDFTEeFW-1" edge="1">
          <mxGeometry relative="1" as="geometry" />
        </mxCell>
        <mxCell id="RJBFYBSUg46-iDFTEeFW-6" value="postId" style="ellipse;whiteSpace=wrap;html=1;align=center;fontStyle=4;" parent="1" vertex="1">
          <mxGeometry x="-200" y="130" width="100" height="40" as="geometry" />
        </mxCell>
        <mxCell id="RJBFYBSUg46-iDFTEeFW-13" style="edgeStyle=orthogonalEdgeStyle;rounded=0;orthogonalLoop=1;jettySize=auto;html=1;entryX=0.75;entryY=1;entryDx=0;entryDy=0;" parent="1" source="RJBFYBSUg46-iDFTEeFW-10" target="RJBFYBSUg46-iDFTEeFW-3" edge="1">
          <mxGeometry relative="1" as="geometry">
            <Array as="points">
              <mxPoint x="535" y="500" />
              <mxPoint x="725" y="500" />
            </Array>
          </mxGeometry>
        </mxCell>
        <mxCell id="RJBFYBSUg46-iDFTEeFW-10" value="is friends with" style="rhombus;whiteSpace=wrap;html=1;" parent="1" vertex="1">
          <mxGeometry x="480" y="430" width="110" height="60" as="geometry" />
        </mxCell>
        <mxCell id="l5PJhf1orLI7VosGzmFl-6" style="rounded=0;orthogonalLoop=1;jettySize=auto;html=1;exitX=0.5;exitY=1;exitDx=0;exitDy=0;strokeColor=default;endArrow=none;endFill=0;" edge="1" parent="1" source="l5PJhf1orLI7VosGzmFl-1">
          <mxGeometry relative="1" as="geometry">
            <mxPoint x="10" y="180" as="targetPoint" />
          </mxGeometry>
        </mxCell>
        <mxCell id="l5PJhf1orLI7VosGzmFl-1" value="userId" style="ellipse;whiteSpace=wrap;html=1;align=center;fontStyle=0;" vertex="1" parent="1">
          <mxGeometry x="-140" y="80" width="100" height="40" as="geometry" />
        </mxCell>
        <mxCell id="l5PJhf1orLI7VosGzmFl-7" style="rounded=0;orthogonalLoop=1;jettySize=auto;html=1;exitX=0.5;exitY=1;exitDx=0;exitDy=0;strokeColor=default;endArrow=none;endFill=0;" edge="1" parent="1" source="l5PJhf1orLI7VosGzmFl-8">
          <mxGeometry relative="1" as="geometry">
            <mxPoint x="10" y="180" as="targetPoint" />
          </mxGeometry>
        </mxCell>
        <mxCell id="l5PJhf1orLI7VosGzmFl-8" value="title" style="ellipse;whiteSpace=wrap;html=1;align=center;fontStyle=0;" vertex="1" parent="1">
          <mxGeometry x="-40" y="60" width="100" height="40" as="geometry" />
        </mxCell>
        <mxCell id="l5PJhf1orLI7VosGzmFl-16" style="rounded=0;orthogonalLoop=1;jettySize=auto;html=1;exitX=0.5;exitY=1;exitDx=0;exitDy=0;strokeColor=default;endArrow=none;endFill=0;" edge="1" parent="1" source="l5PJhf1orLI7VosGzmFl-17">
          <mxGeometry relative="1" as="geometry">
            <mxPoint x="10" y="180" as="targetPoint" />
          </mxGeometry>
        </mxCell>
        <mxCell id="l5PJhf1orLI7VosGzmFl-17" value="date" style="ellipse;whiteSpace=wrap;html=1;align=center;fontStyle=0;" vertex="1" parent="1">
          <mxGeometry x="60" y="80" width="100" height="40" as="geometry" />
        </mxCell>
        <mxCell id="l5PJhf1orLI7VosGzmFl-18" style="rounded=0;orthogonalLoop=1;jettySize=auto;html=1;exitX=0.5;exitY=1;exitDx=0;exitDy=0;strokeColor=default;endArrow=none;endFill=0;" edge="1" parent="1" source="l5PJhf1orLI7VosGzmFl-19">
          <mxGeometry relative="1" as="geometry">
            <mxPoint x="10" y="180" as="targetPoint" />
          </mxGeometry>
        </mxCell>
        <mxCell id="l5PJhf1orLI7VosGzmFl-19" value="place" style="ellipse;whiteSpace=wrap;html=1;align=center;fontStyle=0;" vertex="1" parent="1">
          <mxGeometry x="120" y="120" width="100" height="40" as="geometry" />
        </mxCell>
        <mxCell id="l5PJhf1orLI7VosGzmFl-20" value="VideoPost" style="whiteSpace=wrap;html=1;align=center;" vertex="1" parent="1">
          <mxGeometry x="-240" y="335" width="100" height="40" as="geometry" />
        </mxCell>
        <mxCell id="l5PJhf1orLI7VosGzmFl-23" style="rounded=0;orthogonalLoop=1;jettySize=auto;html=1;exitX=0.5;exitY=1;exitDx=0;exitDy=0;strokeColor=default;endArrow=none;endFill=0;entryX=0;entryY=0.5;entryDx=0;entryDy=0;" edge="1" parent="1" source="l5PJhf1orLI7VosGzmFl-24" target="l5PJhf1orLI7VosGzmFl-20">
          <mxGeometry relative="1" as="geometry">
            <mxPoint x="-190" y="335" as="targetPoint" />
          </mxGeometry>
        </mxCell>
        <mxCell id="l5PJhf1orLI7VosGzmFl-24" value="videoURL" style="ellipse;whiteSpace=wrap;html=1;align=center;fontStyle=0;" vertex="1" parent="1">
          <mxGeometry x="-370" y="285" width="100" height="40" as="geometry" />
        </mxCell>
        <mxCell id="l5PJhf1orLI7VosGzmFl-25" style="rounded=0;orthogonalLoop=1;jettySize=auto;html=1;strokeColor=default;endArrow=none;endFill=0;entryX=0;entryY=0.5;entryDx=0;entryDy=0;exitX=0.5;exitY=0;exitDx=0;exitDy=0;" edge="1" parent="1" source="l5PJhf1orLI7VosGzmFl-26" target="l5PJhf1orLI7VosGzmFl-20">
          <mxGeometry relative="1" as="geometry">
            <mxPoint x="-190" y="335" as="targetPoint" />
            <mxPoint x="-300" y="375" as="sourcePoint" />
          </mxGeometry>
        </mxCell>
        <mxCell id="l5PJhf1orLI7VosGzmFl-26" value="codec" style="ellipse;whiteSpace=wrap;html=1;align=center;fontStyle=0;" vertex="1" parent="1">
          <mxGeometry x="-370" y="375" width="100" height="40" as="geometry" />
        </mxCell>
        <mxCell id="l5PJhf1orLI7VosGzmFl-34" style="rounded=0;orthogonalLoop=1;jettySize=auto;html=1;exitX=1;exitY=0.5;exitDx=0;exitDy=0;entryX=0;entryY=1;entryDx=0;entryDy=0;endArrow=none;endFill=0;" edge="1" parent="1" source="l5PJhf1orLI7VosGzmFl-33" target="RJBFYBSUg46-iDFTEeFW-1">
          <mxGeometry relative="1" as="geometry" />
        </mxCell>
        <mxCell id="l5PJhf1orLI7VosGzmFl-33" value="ISA" style="triangle;whiteSpace=wrap;html=1;direction=north;" vertex="1" parent="1">
          <mxGeometry x="-120" y="260" width="60" height="40" as="geometry" />
        </mxCell>
        <mxCell id="l5PJhf1orLI7VosGzmFl-35" style="rounded=0;orthogonalLoop=1;jettySize=auto;html=1;exitX=1;exitY=0.5;exitDx=0;exitDy=0;endArrow=none;endFill=0;entryX=0;entryY=0.5;entryDx=0;entryDy=0;" edge="1" parent="1" source="l5PJhf1orLI7VosGzmFl-20" target="l5PJhf1orLI7VosGzmFl-33">
          <mxGeometry relative="1" as="geometry">
            <mxPoint x="-138" y="310" as="targetPoint" />
          </mxGeometry>
        </mxCell>
        <mxCell id="l5PJhf1orLI7VosGzmFl-47" style="rounded=0;orthogonalLoop=1;jettySize=auto;html=1;exitX=0;exitY=0;exitDx=0;exitDy=0;entryX=0;entryY=0.5;entryDx=0;entryDy=0;endArrow=none;endFill=0;" edge="1" parent="1" source="l5PJhf1orLI7VosGzmFl-37" target="l5PJhf1orLI7VosGzmFl-42">
          <mxGeometry relative="1" as="geometry" />
        </mxCell>
        <mxCell id="l5PJhf1orLI7VosGzmFl-37" value="VideoPost" style="whiteSpace=wrap;html=1;align=center;" vertex="1" parent="1">
          <mxGeometry x="160" y="335" width="100" height="40" as="geometry" />
        </mxCell>
        <mxCell id="l5PJhf1orLI7VosGzmFl-45" style="rounded=0;orthogonalLoop=1;jettySize=auto;html=1;exitX=0;exitY=0.5;exitDx=0;exitDy=0;entryX=1;entryY=0;entryDx=0;entryDy=0;endArrow=none;endFill=0;" edge="1" parent="1" source="l5PJhf1orLI7VosGzmFl-39" target="l5PJhf1orLI7VosGzmFl-37">
          <mxGeometry relative="1" as="geometry" />
        </mxCell>
        <mxCell id="l5PJhf1orLI7VosGzmFl-39" value="videoURL" style="ellipse;whiteSpace=wrap;html=1;align=center;fontStyle=0;" vertex="1" parent="1">
          <mxGeometry x="290" y="285" width="100" height="40" as="geometry" />
        </mxCell>
        <mxCell id="l5PJhf1orLI7VosGzmFl-46" style="rounded=0;orthogonalLoop=1;jettySize=auto;html=1;exitX=0;exitY=0.5;exitDx=0;exitDy=0;entryX=1;entryY=1;entryDx=0;entryDy=0;endArrow=none;endFill=0;" edge="1" parent="1" source="l5PJhf1orLI7VosGzmFl-41" target="l5PJhf1orLI7VosGzmFl-37">
          <mxGeometry relative="1" as="geometry" />
        </mxCell>
        <mxCell id="l5PJhf1orLI7VosGzmFl-41" value="codec" style="ellipse;whiteSpace=wrap;html=1;align=center;fontStyle=0;" vertex="1" parent="1">
          <mxGeometry x="290" y="390" width="100" height="40" as="geometry" />
        </mxCell>
        <mxCell id="l5PJhf1orLI7VosGzmFl-48" style="rounded=0;orthogonalLoop=1;jettySize=auto;html=1;exitX=1;exitY=0.5;exitDx=0;exitDy=0;entryX=1;entryY=1;entryDx=0;entryDy=0;endArrow=none;endFill=0;" edge="1" parent="1" source="l5PJhf1orLI7VosGzmFl-42" target="RJBFYBSUg46-iDFTEeFW-1">
          <mxGeometry relative="1" as="geometry" />
        </mxCell>
        <mxCell id="l5PJhf1orLI7VosGzmFl-42" value="ISA" style="triangle;whiteSpace=wrap;html=1;direction=north;" vertex="1" parent="1">
          <mxGeometry x="80" y="260" width="60" height="40" as="geometry" />
        </mxCell>
      </root>
    </mxGraphModel>
  </diagram>
</mxfile>
